<?xml version="1.0" encoding="utf-8"?>
<!-- Generator: Adobe Illustrator 26.0.3, SVG Export Plug-In . SVG Version: 6.00 Build 0)  -->
<svg version="1.1" id="Layer_1" xmlns="http://www.w3.org/2000/svg" xmlns:xlink="http://www.w3.org/1999/xlink" x="0px" y="0px"
	 viewBox="0 0 1080 1080" style="enable-background:new 0 0 1080 1080;" xml:space="preserve">
<style type="text/css">
	.st0{fill:#0000FF;}
	.st1{enable-background:new    ;}
	.st2{fill:#FFFFFF;}
</style>
<rect class="st0" width="1080" height="1080"/>
<g class="st1">
	<path class="st2" d="M165.4,414.1c0,6.9,9.3,9.6,28.2,16.2c29.4,10.5,61.5,19.8,61.5,52.8c0,39.6-40.5,49.5-69,49.5
		c-47.1,0-74.4-23.4-76.2-57.6h51c0,9.9,5.7,18.6,25.2,18.6c13.5,0,18-3.9,18-9c0-6.6-3.9-8.7-29.1-17.7
		c-28.2-9.9-60.6-19.2-60.6-53.7c0-29.7,25.5-47.1,69-47.1c45.6,0,68.1,19.2,70.5,56.1h-51c-0.6-11.1-7.2-16.8-18.9-17.1
		C171.7,404.8,165.4,407.8,165.4,414.1z"/>
	<path class="st2" d="M440.5,423.1v105h-51v-82.8c0-18.9-8.4-29.7-22.8-29.7c-16.5,0-25.2,13.8-25.2,40.5v72h-51V307.6h51v100.8h2.1
		c6.3-26.7,24-42.3,48.3-42.3C421.3,366.1,440.5,388.6,440.5,423.1z"/>
	<path class="st2" d="M542.5,366.1c47.4,0,76.8,31.8,76.8,83.1c0,51.6-29.1,83.4-76.8,83.4c-47.7,0-76.8-31.8-76.8-83.4
		C465.7,397.9,495.1,366.1,542.5,366.1z M542.5,492.1c16.8,0,25.8-14.7,25.8-42.9c0-27.9-9-42.6-25.8-42.6
		c-16.8,0-25.8,14.7-25.8,42.6C516.7,477.4,525.7,492.1,542.5,492.1z"/>
	<path class="st2" d="M736,487.6h61.5v40.5h-147v-40.5H685v-75h-34.5v-40.5H709c17.4,0,27,9.6,27,27v15.3h2.1
		c7.8-26.4,21-42.3,48.9-42.3h16.5v49.5H772c-23.4,0-36,12.6-36,36V487.6z"/>
	<path class="st2" d="M821.5,372.1H850c7.8,0,12-4.2,12-12v-42h51v54h61.5v40.5H913v57c0,11.7,6.3,18,18,18h46.5v40.5H922
		c-39,0-60-21-60-60v-55.5h-40.5V372.1z"/>
</g>
<g class="st1">
	<path class="st2" d="M272.5,662.5V703h-180v-40.5H272.5z"/>
	<path class="st2" d="M385,606.1v6h49.5v40.5H385v75h52.5v40.5h-144v-40.5H334v-75h-40.5v-40.5H334v-4.5c0-39,21-60,60-60h46.5v40.5
		H403C391.3,588.1,385,594.4,385,606.1z"/>
	<path class="st2" d="M542.5,606.1c47.4,0,76.8,31.8,76.8,83.1c0,51.6-29.1,83.4-76.8,83.4c-47.7,0-76.8-31.8-76.8-83.4
		C465.7,637.9,495.1,606.1,542.5,606.1z M542.5,732.1c16.8,0,25.8-14.7,25.8-42.9c0-27.9-9-42.6-25.8-42.6
		c-16.8,0-25.8,14.7-25.8,42.6C516.7,717.4,525.7,732.1,542.5,732.1z"/>
	<path class="st2" d="M736,727.6h61.5v40.5h-147v-40.5H685v-75h-34.5v-40.5H709c17.4,0,27,9.6,27,27v15.3h2.1
		c7.8-26.4,21-42.3,48.9-42.3h16.5v49.5H772c-23.4,0-36,12.6-36,36V727.6z"/>
	<path class="st2" d="M986.5,648.4v119.7h-48v-97.8c0-11.4-1.8-15-7.2-15c-5.1,0-7.8,3.6-7.8,15v97.8h-42v-97.8
		c0-11.4-1.5-15-6.9-15c-5.1,0-8.1,3.9-8.1,15v97.8h-48v-156h48v26.4h2.1c5.7-19.8,13.2-32.4,29.4-32.4c18.9,0,24.3,12.3,25.2,32.4
		h2.1c5.7-18,15.6-32.4,33.3-32.4C981.4,606.1,986.5,622.3,986.5,648.4z"/>
</g>
</svg>
